<?xml version='1.0' encoding='utf-8'?>
<svg xmlns="http://www.w3.org/2000/svg" width="1920" height="1080" viewBox="0 0 1920 1080" role="img" aria-labelledby="diagram-title diagram-description">
  <title id="diagram-title">Aafiatak Main Use Case Diagram</title>
  <desc id="diagram-description">System-level UML use case overview for the Aafiatak medical appointment booking system.</desc>
  <defs>
    <style>text { font-family: Arial, Helvetica, sans-serif; fill: #243142; text-anchor: middle; }
.page-title { font-size: 28px; font-weight: 700; }
.boundary-title { font-size: 18px; font-weight: 700; text-anchor: start; }
.section-label { font-size: 14px; font-weight: 700; letter-spacing: 1.2px; text-anchor: start; text-transform: uppercase; }
.use-case-label { font-size: 15px; }
.actor-label { font-size: 14px; font-weight: 600; }
.stereotype { font-size: 13px; font-style: italic; }
.condition { font-size: 11px; fill: #64748B; }
.boundary { fill: none; stroke: #334E68; stroke-width: 2; }
.field { fill: #F4F3EF; opacity: .72; }
.field-accent { stroke-width: 4; stroke-linecap: round; }
.actor { fill: none; stroke: #243142; stroke-width: 1.6; stroke-linecap: round; stroke-linejoin: round; }
.use-case { stroke: #334E68; stroke-width: 1.5; }
.access { fill: #E8F1F8; } .patient { fill: #F8EBCF; }
.facility { fill: #E6F1E8; } .operations { fill: #F5E8DF; }
.doctor { fill: #E8EFF2; } .platform { fill: #ECEAF4; }
.association { fill: none; stroke: #8191A3; stroke-width: 1.25; stroke-linecap: round; stroke-linejoin: round; }
.dependency { fill: none; stroke: #315F85; stroke-width: 1.6; stroke-dasharray: 7 5; marker-end: url(#dependency-arrow); stroke-linecap: round; stroke-linejoin: round; }
.label-backdrop { fill: #FAFAF8; opacity: .94; }</style>
    <marker id="dependency-arrow" viewBox="0 0 10 10" refX="9" refY="5" markerWidth="8" markerHeight="8" orient="auto-start-reverse">
      <path d="M 0 0 L 10 5 L 0 10" fill="none" stroke="#315F85" stroke-width="1.4" />
    </marker>
  </defs>
  <rect width="1920" height="1080" fill="#FAFAF8" />
  <text x="960.0" y="42" class="page-title">
    <tspan x="960.0" y="42">Aafiatak Main Use Case Diagram</tspan>
  </text>
  <rect x="220" y="135" width="1480" height="810" rx="4" class="boundary" id="system-boundary" data-x="220" data-y="135" data-width="1480" data-height="810" />
  <text x="244" y="166" class="boundary-title">
    <tspan x="244" y="166">Aafiatak Medical Appointment Booking System</tspan>
  </text>
  <g aria-label="Presentation-only visual neighborhoods">
    <rect x="260" y="195" width="550" height="310" rx="20" class="field" />
    <line x1="261" y1="213" x2="298" y2="213" class="field-accent" stroke="#E8F1F8" />
    <text x="308" y="218" class="section-label">
      <tspan x="308" y="218">ACCESS &amp; IDENTITY</tspan>
    </text>
    <rect x="920" y="195" width="745" height="430" rx="20" class="field" />
    <line x1="921" y1="213" x2="958" y2="213" class="field-accent" stroke="#F8EBCF" />
    <text x="968" y="218" class="section-label">
      <tspan x="968" y="218">PATIENT SERVICES</tspan>
    </text>
    <rect x="260" y="590" width="520" height="310" rx="20" class="field" />
    <line x1="261" y1="608" x2="298" y2="608" class="field-accent" stroke="#E6F1E8" />
    <text x="308" y="613" class="section-label">
      <tspan x="308" y="613">FACILITY ADMINISTRATION</tspan>
    </text>
    <rect x="760" y="590" width="665" height="310" rx="20" class="field" />
    <line x1="761" y1="608" x2="798" y2="608" class="field-accent" stroke="#F5E8DF" />
    <text x="808" y="613" class="section-label">
      <tspan x="808" y="613">CARE OPERATIONS</tspan>
    </text>
    <rect x="1150" y="785" width="515" height="150" rx="20" class="field" />
    <line x1="1151" y1="803" x2="1188" y2="803" class="field-accent" stroke="#ECEAF4" />
    <text x="1198" y="808" class="section-label">
      <tspan x="1198" y="808">PLATFORM ADMINISTRATION</tspan>
    </text>
  </g>
  <g aria-label="UML relationships">
    <path id="relation-visitor-muc-01" data-relation-id="relation.visitor-muc-01" data-source="actor.visitor" data-target="uc.muc-01" data-points="135,252 290,259" d="M 135 252 L 290 259" class="association" />
    <path id="relation-visitor-muc-02" data-relation-id="relation.visitor-muc-02" data-source="actor.visitor" data-target="uc.muc-02" data-points="120,229 240,200 665,200 665,230" d="M 120 229 L 240 200 L 665 200 L 665 230" class="association" />
    <path id="relation-visitor-muc-03" data-relation-id="relation.visitor-muc-03" data-source="actor.visitor" data-target="uc.muc-03" data-points="110,268 250,354 290,354" d="M 110 268 L 250 354 L 290 354" class="association" />
    <path id="relation-visitor-muc-04" data-relation-id="relation.visitor-muc-04" data-source="actor.visitor" data-target="uc.muc-04" data-points="133,292 245,540 820,540 820,354 775,354" d="M 133 292 L 245 540 L 820 540 L 820 354 L 775 354" class="association" />
    <path id="relation-patient-muc-04" data-relation-id="relation.patient-muc-04" data-source="actor.patient" data-target="uc.muc-04" data-points="1797,254 1650,165 820,165 820,354 775,354" d="M 1797 254 L 1650 165 L 820 165 L 820 354 L 775 354" class="association" />
    <path id="relation-patient-muc-06" data-relation-id="relation.patient-muc-06" data-source="actor.patient" data-target="uc.muc-06" data-points="1782,277 1410,244" d="M 1782 277 L 1410 244" class="association" />
    <path id="relation-patient-muc-09" data-relation-id="relation.patient-muc-09" data-source="actor.patient" data-target="uc.muc-09" data-points="1782,277 1655,329" d="M 1782 277 L 1655 329" class="association" />
    <path id="relation-patient-muc-11" data-relation-id="relation.patient-muc-11" data-source="actor.patient" data-target="uc.muc-11" data-points="1807,293 1660,414 1410,414" d="M 1807 293 L 1660 414 L 1410 414" class="association" />
    <path id="relation-patient-muc-12" data-relation-id="relation.patient-muc-12" data-source="actor.patient" data-target="uc.muc-12" data-points="1784,317 1665,499 1655,499" d="M 1784 317 L 1665 499 L 1655 499" class="association" />
    <path id="relation-patient-muc-13" data-relation-id="relation.patient-muc-13" data-source="actor.patient" data-target="uc.muc-13" data-points="1784,317 1670,584 1410,584" d="M 1784 317 L 1670 584 L 1410 584" class="association" />
    <path id="relation-facility-admin-muc-15" data-relation-id="relation.facility-admin-muc-15" data-source="actor.facility-administrator" data-target="uc.muc-15" data-points="135,692 290,659" d="M 135 692 L 290 659" class="association" />
    <path id="relation-facility-admin-muc-16" data-relation-id="relation.facility-admin-muc-16" data-source="actor.facility-administrator" data-target="uc.muc-16" data-points="120,669 245,590 645,590 645,630" d="M 120 669 L 245 590 L 645 590 L 645 630" class="association" />
    <path id="relation-facility-admin-muc-19" data-relation-id="relation.facility-admin-muc-19" data-source="actor.facility-administrator" data-target="uc.muc-19" data-points="110,708 240,570 890,570 890,630" d="M 110 708 L 240 570 L 890 570 L 890 630" class="association" />
    <path id="relation-facility-admin-muc-21" data-relation-id="relation.facility-admin-muc-21" data-source="actor.facility-administrator" data-target="uc.muc-21" data-points="133,732 535,759" d="M 133 732 L 535 759" class="association" />
    <path id="relation-reception-muc-19" data-relation-id="relation.reception-muc-19" data-source="actor.booking-reception-staff" data-target="uc.muc-19" data-points="920,974 1050,955 1050,659 1000,659" d="M 920 974 L 1050 955 L 1050 659 L 1000 659" class="association" />
    <path id="relation-reception-muc-20" data-relation-id="relation.reception-muc-20" data-source="actor.booking-reception-staff" data-target="uc.muc-20" data-points="940,974 1060,955 1060,759 1000,759" d="M 940 974 L 1060 955 L 1060 759 L 1000 759" class="association" />
    <path id="relation-reception-muc-21" data-relation-id="relation.reception-muc-21" data-source="actor.booking-reception-staff" data-target="uc.muc-21" data-points="905,997 645,955 645,788" d="M 905 997 L 645 955 L 645 788" class="association" />
    <path id="relation-reception-muc-22" data-relation-id="relation.reception-muc-22" data-source="actor.booking-reception-staff" data-target="uc.muc-22" data-points="930,964 890,888" d="M 930 964 L 890 888" class="association" />
    <path id="relation-reception-muc-26" data-relation-id="relation.reception-muc-26" data-source="actor.booking-reception-staff" data-target="uc.muc-26" data-points="955,997 1140,955 1140,759 1190,759" d="M 955 997 L 1140 955 L 1140 759 L 1190 759" class="association" />
    <path id="relation-doctor-muc-25" data-relation-id="relation.doctor-muc-25" data-source="actor.doctor" data-target="uc.muc-25" data-points="1782,672 1655,654" d="M 1782 672 L 1655 654" class="association" />
    <path id="relation-doctor-muc-26" data-relation-id="relation.doctor-muc-26" data-source="actor.doctor" data-target="uc.muc-26" data-points="1784,712 1410,759" d="M 1784 712 L 1410 759" class="association" />
    <path id="relation-platform-admin-muc-27" data-relation-id="relation.platform-admin-muc-27" data-source="actor.platform-administrator" data-target="uc.muc-27" data-points="1797,849 1655,824" d="M 1797 849 L 1655 824" class="association" />
    <path id="relation-platform-admin-muc-28" data-relation-id="relation.platform-admin-muc-28" data-source="actor.platform-administrator" data-target="uc.muc-28" data-points="1782,872 1670,935 1285,935 1285,888" d="M 1782 872 L 1670 935 L 1285 935 L 1285 888" class="association" />
    <path id="relation-platform-admin-muc-29" data-relation-id="relation.platform-admin-muc-29" data-source="actor.platform-administrator" data-target="uc.muc-29" data-points="1784,912 1655,904" d="M 1784 912 L 1655 904" class="association" />
    <path id="relation-payment-gateway-muc-09" data-relation-id="relation.payment-gateway-muc-09" data-source="actor.payment-gateway" data-target="uc.muc-09" data-points="1480,97 1545,130 1545,300" d="M 1480 97 L 1545 130 L 1545 300" class="association" />
    <path id="relation-notification-service-muc-14" data-relation-id="relation.notification-service-muc-14" data-source="actor.notification-service" data-target="uc.muc-14" data-points="1782,487 1690,500 1690,445 1170,445 1170,499" d="M 1782 487 L 1690 500 L 1690 445 L 1170 445 L 1170 499" class="association" />
    <path id="relation-map-service-muc-02" data-relation-id="relation.map-service-muc-02" data-source="actor.map-service" data-target="uc.muc-02" data-points="558,97 640,130 640,190 665,190 665,230" d="M 558 97 L 640 130 L 640 190 L 665 190 L 665 230" class="association" />
    <path id="relation-whatsapp-provider-muc-05" data-relation-id="relation.whatsapp-provider-muc-05" data-source="actor.whatsapp-auth-provider" data-target="uc.muc-05" data-points="135,442 555,449" d="M 135 442 L 555 449" class="association" />
    <path id="relation-inc-01" data-relation-id="relation.inc-01" data-source="uc.muc-03" data-target="uc.muc-05" data-points="510,354 530,354 530,449 555,449" d="M 510 354 L 530 354 L 530 449 L 555 449" class="dependency" />
    <text x="520" y="398" class="stereotype">
      <tspan x="520" y="398">&lt;&lt;include&gt;&gt;</tspan>
    </text>
    <path id="relation-inc-02" data-relation-id="relation.inc-02" data-source="uc.muc-04" data-target="uc.muc-05" data-points="665,383 665,420" d="M 665 383 L 665 420" class="dependency" />
    <text x="705" y="405" class="stereotype">
      <tspan x="705" y="405">&lt;&lt;include&gt;&gt;</tspan>
    </text>
    <path id="relation-ext-01" data-relation-id="relation.ext-01" data-source="uc.muc-09" data-target="uc.muc-06" data-points="1435,329 1400,329 1400,285 1300,285 1300,273" d="M 1435 329 L 1400 329 L 1400 285 L 1300 285 L 1300 273" class="dependency" />
    <text x="1350" y="305" class="stereotype">
      <tspan x="1350" y="305">&lt;&lt;extend&gt;&gt;</tspan>
    </text>
    <text x="1260" y="342" class="condition">
      <tspan x="1260" y="342">[Booking policy = FULL_PAYMENT_REQUIRED]</tspan>
    </text>
  </g>
  <g aria-label="Use cases">
    <g id="uc-muc-01" data-semantic-id="uc.muc-01" data-kind="use_case" data-x="290" data-y="230" data-width="220" data-height="58">
      <ellipse cx="400.0" cy="259.0" rx="110.0" ry="29.0" class="use-case access" />
      <text x="400.0" y="264.0" class="use-case-label">
        <tspan x="400.0" y="264">Discover Medical Services</tspan>
      </text>
    </g>
    <g id="uc-muc-02" data-semantic-id="uc.muc-02" data-kind="use_case" data-x="555" data-y="230" data-width="220" data-height="58">
      <ellipse cx="665.0" cy="259.0" rx="110.0" ry="29.0" class="use-case access" />
      <text x="665.0" y="264.0" class="use-case-label">
        <tspan x="665.0" y="264">View Facility Location</tspan>
      </text>
    </g>
    <g id="uc-muc-03" data-semantic-id="uc.muc-03" data-kind="use_case" data-x="290" data-y="325" data-width="220" data-height="58">
      <ellipse cx="400.0" cy="354.0" rx="110.0" ry="29.0" class="use-case access" />
      <text x="400.0" y="359.0" class="use-case-label">
        <tspan x="400.0" y="359">Register Patient</tspan>
      </text>
    </g>
    <g id="uc-muc-04" data-semantic-id="uc.muc-04" data-kind="use_case" data-x="555" data-y="325" data-width="220" data-height="58">
      <ellipse cx="665.0" cy="354.0" rx="110.0" ry="29.0" class="use-case access" />
      <text x="665.0" y="359.0" class="use-case-label">
        <tspan x="665.0" y="359">Log In</tspan>
      </text>
    </g>
    <g id="uc-muc-05" data-semantic-id="uc.muc-05" data-kind="use_case" data-x="555" data-y="420" data-width="220" data-height="58">
      <ellipse cx="665.0" cy="449.0" rx="110.0" ry="29.0" class="use-case access" />
      <text x="665.0" y="454.0" class="use-case-label">
        <tspan x="665.0" y="454">Verify WhatsApp OTP</tspan>
      </text>
    </g>
    <g id="uc-muc-06" data-semantic-id="uc.muc-06" data-kind="use_case" data-x="1190" data-y="215" data-width="220" data-height="58">
      <ellipse cx="1300.0" cy="244.0" rx="110.0" ry="29.0" class="use-case patient" />
      <text x="1300.0" y="249.0" class="use-case-label">
        <tspan x="1300.0" y="249">Book Appointment</tspan>
      </text>
    </g>
    <g id="uc-muc-09" data-semantic-id="uc.muc-09" data-kind="use_case" data-x="1435" data-y="300" data-width="220" data-height="58">
      <ellipse cx="1545.0" cy="329.0" rx="110.0" ry="29.0" class="use-case patient" />
      <text x="1545.0" y="334.0" class="use-case-label">
        <tspan x="1545.0" y="334">Process Full Payment</tspan>
      </text>
    </g>
    <g id="uc-muc-11" data-semantic-id="uc.muc-11" data-kind="use_case" data-x="1190" data-y="385" data-width="220" data-height="58">
      <ellipse cx="1300.0" cy="414.0" rx="110.0" ry="29.0" class="use-case patient" />
      <text x="1300.0" y="419.0" class="use-case-label">
        <tspan x="1300.0" y="410.5">Subscribe to Availability</tspan>
        <tspan x="1300.0" y="427.5">Alert</tspan>
      </text>
    </g>
    <g id="uc-muc-12" data-semantic-id="uc.muc-12" data-kind="use_case" data-x="1435" data-y="470" data-width="220" data-height="58">
      <ellipse cx="1545.0" cy="499.0" rx="110.0" ry="29.0" class="use-case patient" />
      <text x="1545.0" y="504.0" class="use-case-label">
        <tspan x="1545.0" y="504">Manage Patient Appointments</tspan>
      </text>
    </g>
    <g id="uc-muc-13" data-semantic-id="uc.muc-13" data-kind="use_case" data-x="1190" data-y="555" data-width="220" data-height="58">
      <ellipse cx="1300.0" cy="584.0" rx="110.0" ry="29.0" class="use-case patient" />
      <text x="1300.0" y="589.0" class="use-case-label">
        <tspan x="1300.0" y="589">Track Visit &amp; Queue</tspan>
      </text>
    </g>
    <g id="uc-muc-14" data-semantic-id="uc.muc-14" data-kind="use_case" data-x="950" data-y="470" data-width="220" data-height="58">
      <ellipse cx="1060.0" cy="499.0" rx="110.0" ry="29.0" class="use-case patient" />
      <text x="1060.0" y="504.0" class="use-case-label">
        <tspan x="1060.0" y="504">Deliver Notifications</tspan>
      </text>
    </g>
    <g id="uc-muc-15" data-semantic-id="uc.muc-15" data-kind="use_case" data-x="290" data-y="630" data-width="220" data-height="58">
      <ellipse cx="400.0" cy="659.0" rx="110.0" ry="29.0" class="use-case facility" />
      <text x="400.0" y="664.0" class="use-case-label">
        <tspan x="400.0" y="664">Manage Facility Configuration</tspan>
      </text>
    </g>
    <g id="uc-muc-16" data-semantic-id="uc.muc-16" data-kind="use_case" data-x="535" data-y="630" data-width="220" data-height="58">
      <ellipse cx="645.0" cy="659.0" rx="110.0" ry="29.0" class="use-case facility" />
      <text x="645.0" y="664.0" class="use-case-label">
        <tspan x="645.0" y="655.5">Manage Schedules &amp;</tspan>
        <tspan x="645.0" y="672.5">Availability</tspan>
      </text>
    </g>
    <g id="uc-muc-19" data-semantic-id="uc.muc-19" data-kind="use_case" data-x="780" data-y="630" data-width="220" data-height="58">
      <ellipse cx="890.0" cy="659.0" rx="110.0" ry="29.0" class="use-case operations" />
      <text x="890.0" y="664.0" class="use-case-label">
        <tspan x="890.0" y="664">Manage Operational Exceptions</tspan>
      </text>
    </g>
    <g id="uc-muc-20" data-semantic-id="uc.muc-20" data-kind="use_case" data-x="780" data-y="730" data-width="220" data-height="58">
      <ellipse cx="890.0" cy="759.0" rx="110.0" ry="29.0" class="use-case operations" />
      <text x="890.0" y="764.0" class="use-case-label">
        <tspan x="890.0" y="764">Manage Facility Appointments</tspan>
      </text>
    </g>
    <g id="uc-muc-21" data-semantic-id="uc.muc-21" data-kind="use_case" data-x="535" data-y="730" data-width="220" data-height="58">
      <ellipse cx="645.0" cy="759.0" rx="110.0" ry="29.0" class="use-case operations" />
      <text x="645.0" y="764.0" class="use-case-label">
        <tspan x="645.0" y="764">Manage Capacity</tspan>
      </text>
    </g>
    <g id="uc-muc-22" data-semantic-id="uc.muc-22" data-kind="use_case" data-x="780" data-y="830" data-width="220" data-height="58">
      <ellipse cx="890.0" cy="859.0" rx="110.0" ry="29.0" class="use-case operations" />
      <text x="890.0" y="864.0" class="use-case-label">
        <tspan x="890.0" y="855.5">Manage Patient Arrival &amp;</tspan>
        <tspan x="890.0" y="872.5">Queue</tspan>
      </text>
    </g>
    <g id="uc-muc-25" data-semantic-id="uc.muc-25" data-kind="use_case" data-x="1435" data-y="625" data-width="220" data-height="58">
      <ellipse cx="1545.0" cy="654.0" rx="110.0" ry="29.0" class="use-case doctor" />
      <text x="1545.0" y="659.0" class="use-case-label">
        <tspan x="1545.0" y="650.5">View Assigned Appointments &amp;</tspan>
        <tspan x="1545.0" y="667.5">Queue</tspan>
      </text>
    </g>
    <g id="uc-muc-26" data-semantic-id="uc.muc-26" data-kind="use_case" data-x="1190" data-y="730" data-width="220" data-height="58">
      <ellipse cx="1300.0" cy="759.0" rx="110.0" ry="29.0" class="use-case doctor" />
      <text x="1300.0" y="764.0" class="use-case-label">
        <tspan x="1300.0" y="764">Call Next Patient</tspan>
      </text>
    </g>
    <g id="uc-muc-27" data-semantic-id="uc.muc-27" data-kind="use_case" data-x="1435" data-y="795" data-width="220" data-height="58">
      <ellipse cx="1545.0" cy="824.0" rx="110.0" ry="29.0" class="use-case platform" />
      <text x="1545.0" y="829.0" class="use-case-label">
        <tspan x="1545.0" y="829">Manage Facility Onboarding</tspan>
      </text>
    </g>
    <g id="uc-muc-28" data-semantic-id="uc.muc-28" data-kind="use_case" data-x="1175" data-y="830" data-width="220" data-height="58">
      <ellipse cx="1285.0" cy="859.0" rx="110.0" ry="29.0" class="use-case platform" />
      <text x="1285.0" y="864.0" class="use-case-label">
        <tspan x="1285.0" y="855.5">Manage Platform Reference &amp;</tspan>
        <tspan x="1285.0" y="872.5">Staff Data</tspan>
      </text>
    </g>
    <g id="uc-muc-29" data-semantic-id="uc.muc-29" data-kind="use_case" data-x="1435" data-y="875" data-width="220" data-height="58">
      <ellipse cx="1545.0" cy="904.0" rx="110.0" ry="29.0" class="use-case platform" />
      <text x="1545.0" y="909.0" class="use-case-label">
        <tspan x="1545.0" y="909">Handle Support &amp; Escalations</tspan>
      </text>
    </g>
  </g>
  <g aria-label="Actors outside the system boundary">
    <g id="actor-visitor" data-semantic-id="actor.visitor" data-kind="actor" data-x="25" data-y="210" data-width="170" data-height="115">
      <circle cx="110.0" cy="229" r="10" class="actor" />
      <path d="M 110.0 239 V 268 M 85.0 252 H 135.0 M 110.0 268 L 87.0 292 M 110.0 268 L 133.0 292" class="actor" />
      <text x="110.0" y="311" class="actor-label">
        <tspan x="110.0" y="311">Visitor</tspan>
      </text>
    </g>
    <g id="actor-facility-administrator" data-semantic-id="actor.facility-administrator" data-kind="actor" data-x="20" data-y="650" data-width="180" data-height="120">
      <circle cx="110.0" cy="669" r="10" class="actor" />
      <path d="M 110.0 679 V 708 M 85.0 692 H 135.0 M 110.0 708 L 87.0 732 M 110.0 708 L 133.0 732" class="actor" />
      <text x="110.0" y="751" class="actor-label">
        <tspan x="110.0" y="751">Facility Administrator</tspan>
      </text>
    </g>
    <g id="actor-patient" data-semantic-id="actor.patient" data-kind="actor" data-x="1720" data-y="235" data-width="175" data-height="120">
      <circle cx="1807.5" cy="254" r="10" class="actor" />
      <path d="M 1807.5 264 V 293 M 1782.5 277 H 1832.5 M 1807.5 293 L 1784.5 317 M 1807.5 293 L 1830.5 317" class="actor" />
      <text x="1807.5" y="336" class="actor-label">
        <tspan x="1807.5" y="336">Patient</tspan>
      </text>
    </g>
    <g id="actor-notification-service" data-semantic-id="actor.notification-service" data-kind="actor" data-x="1720" data-y="445" data-width="175" data-height="120">
      <circle cx="1807.5" cy="464" r="10" class="actor" />
      <path d="M 1807.5 474 V 503 M 1782.5 487 H 1832.5 M 1807.5 503 L 1784.5 527 M 1807.5 503 L 1830.5 527" class="actor" />
      <text x="1807.5" y="546" class="actor-label">
        <tspan x="1807.5" y="546">Notification Service</tspan>
      </text>
    </g>
    <g id="actor-doctor" data-semantic-id="actor.doctor" data-kind="actor" data-x="1720" data-y="630" data-width="175" data-height="120">
      <circle cx="1807.5" cy="649" r="10" class="actor" />
      <path d="M 1807.5 659 V 688 M 1782.5 672 H 1832.5 M 1807.5 688 L 1784.5 712 M 1807.5 688 L 1830.5 712" class="actor" />
      <text x="1807.5" y="731" class="actor-label">
        <tspan x="1807.5" y="731">Doctor</tspan>
      </text>
    </g>
    <g id="actor-platform-administrator" data-semantic-id="actor.platform-administrator" data-kind="actor" data-x="1715" data-y="830" data-width="185" data-height="120">
      <circle cx="1807.5" cy="849" r="10" class="actor" />
      <path d="M 1807.5 859 V 888 M 1782.5 872 H 1832.5 M 1807.5 888 L 1784.5 912 M 1807.5 888 L 1830.5 912" class="actor" />
      <text x="1807.5" y="931" class="actor-label">
        <tspan x="1807.5" y="931">Platform Administrator</tspan>
      </text>
    </g>
    <g id="actor-map-service" data-semantic-id="actor.map-service" data-kind="actor" data-x="450" data-y="15" data-width="170" data-height="110">
      <circle cx="535.0" cy="34" r="10" class="actor" />
      <path d="M 535.0 44 V 73 M 510.0 57 H 560.0 M 535.0 73 L 512.0 97 M 535.0 73 L 558.0 97" class="actor" />
      <text x="535.0" y="116" class="actor-label">
        <tspan x="535.0" y="116">Map Service</tspan>
      </text>
    </g>
    <g id="actor-whatsapp-auth-provider" data-semantic-id="actor.whatsapp-auth-provider" data-kind="actor" data-x="20" data-y="400" data-width="180" data-height="125">
      <circle cx="110.0" cy="419" r="10" class="actor" />
      <path d="M 110.0 429 V 458 M 85.0 442 H 135.0 M 110.0 458 L 87.0 482 M 110.0 458 L 133.0 482" class="actor" />
      <text x="110.0" y="501" class="actor-label">
        <tspan x="110.0" y="492.5">WhatsApp Authentication</tspan>
        <tspan x="110.0" y="509.5">Provider</tspan>
      </text>
    </g>
    <g id="actor-payment-gateway" data-semantic-id="actor.payment-gateway" data-kind="actor" data-x="1370" data-y="15" data-width="175" data-height="110">
      <circle cx="1457.5" cy="34" r="10" class="actor" />
      <path d="M 1457.5 44 V 73 M 1432.5 57 H 1482.5 M 1457.5 73 L 1434.5 97 M 1457.5 73 L 1480.5 97" class="actor" />
      <text x="1457.5" y="116" class="actor-label">
        <tspan x="1457.5" y="116">Payment Gateway</tspan>
      </text>
    </g>
    <g id="actor-booking-reception-staff" data-semantic-id="actor.booking-reception-staff" data-kind="actor" data-x="820" data-y="955" data-width="220" data-height="120">
      <circle cx="930.0" cy="974" r="10" class="actor" />
      <path d="M 930.0 984 V 1013 M 905.0 997 H 955.0 M 930.0 1013 L 907.0 1037 M 930.0 1013 L 953.0 1037" class="actor" />
      <text x="930.0" y="1056" class="actor-label">
        <tspan x="930.0" y="1056">Booking &amp; Reception Staff</tspan>
      </text>
    </g>
  </g>
</svg>